<?xml version="1.0" encoding="utf-8"?>
<!-- Generator: Adobe Illustrator 26.0.0, SVG Export Plug-In . SVG Version: 6.00 Build 0)  -->
<svg version="1.1" id="圖層_1" xmlns="http://www.w3.org/2000/svg" xmlns:xlink="http://www.w3.org/1999/xlink" x="0px" y="0px"
	 viewBox="0 0 314.15 89.3" style="enable-background:new 0 0 314.15 89.3;" xml:space="preserve">
<style type="text/css">
	.st0{fill:#C3D8CC;}
	.st1{fill:#FFFFFF;}
</style>
<g>
	<g id="OP-BG">
	</g>
	<g id="XMLID_3495_">
		<g id="XMLID_3739_">
			<g id="XMLID_3742_">
				<path id="XMLID_3745_" class="st0" d="M65.522,34.629c27.889-2.884,61.64,3.14,89.784,0.613
					c33.784-3.493,70.228-2.314,103.866-1.225c-0.074,2.289-2.989,5.633-0.222,6.87c11.101,3.796,10.953,8.379,10.804,12.959
					c-0.074,2.29-8.408-0.272-5.682,2.109c-8.408-0.272-22.47,0.42-14.127,2.98c2.73,2.383,14.016,0.453,16.706,3.979
					c2.696,3.529-3.023,6.781-0.334,10.304c2.807,0.09,8.415,0.272,11.218,0.363c2.724,2.385-3.026,6.783-0.223,6.874
					c8.334,2.562,19.587,1.778,30.792,2.141c-0.074,2.29,2.662,4.671-2.983,5.636c-98.191-0.885-199.258,0.432-297.261-6.182
					c-11.175-1.506-2.615-5.813,5.904-8.977c-2.838,1.056-2.726-2.382-5.571-1.325c0.111-3.436,5.904-8.979,17.156-9.763
					c-2.803-0.09-5.605-0.182-8.411-0.272c-2.767-1.235,0.111-3.434,0.185-5.724c2.807,0.091,5.608,0.182,5.645-0.966
					c0.037-1.142,0.111-3.435,0.148-4.579c-2.8-0.09-8.411-0.272-11.212-0.363c2.801,0.09,5.605,0.182,5.642-0.963
					c0.037-1.146,0.111-3.436,0.148-4.584c5.645-0.961,13.978,1.601,19.626,0.635l0.111-3.432
					c-5.573-1.328-14.018-0.453-19.626-0.635c2.844-1.056,2.881-2.2,2.956-4.492c8.445-0.873,16.746,2.836,25.263-0.329
					c-2.801-0.09-5.605-0.182-8.406-0.272C43.209,30.466,57.074,35.502,65.522,34.629z"/>
			</g>
		</g>
	</g>
</g>
<g>
	<path class="st1" d="M101.024,73.25V50.782h4.573v18.652h11.373v3.817C116.97,73.25,101.024,73.25,101.024,73.25z"/>
	<path class="st1" d="M125.632,62.062c0-2.307,0.346-4.243,1.036-5.81c0.515-1.154,1.219-2.189,2.11-3.105
		c0.89-0.917,1.867-1.597,2.928-2.041c1.411-0.597,3.039-0.896,4.883-0.896c3.337,0,6.008,1.036,8.012,3.105
		c2.004,2.071,3.006,4.951,3.006,8.638c0,3.657-0.995,6.518-2.982,8.584c-1.988,2.065-4.646,3.098-7.974,3.098
		c-3.369,0-6.047-1.027-8.035-3.082C126.627,68.498,125.632,65.668,125.632,62.062z M130.345,61.908c0,2.566,0.592,4.51,1.778,5.833
		c1.185,1.323,2.689,1.986,4.512,1.986s3.319-0.657,4.489-1.97c1.169-1.315,1.753-3.284,1.753-5.911c0-2.596-0.57-4.532-1.708-5.809
		s-2.65-1.917-4.534-1.917c-1.885,0-3.405,0.647-4.559,1.94C130.922,57.352,130.345,59.302,130.345,61.908z"/>
	<path class="st1" d="M168.043,64.921v-3.817h9.859v9.024c-0.958,0.927-2.346,1.743-4.165,2.449
		c-1.819,0.706-3.661,1.058-5.525,1.058c-2.37,0-4.434-0.496-6.196-1.491c-1.762-0.995-3.085-2.416-3.971-4.265
		c-0.885-1.85-1.328-3.862-1.328-6.035c0-2.358,0.494-4.456,1.482-6.289c0.988-1.833,2.436-3.24,4.342-4.219
		c1.452-0.752,3.261-1.128,5.424-1.128c2.812,0,5.01,0.59,6.591,1.77c1.582,1.179,2.599,2.809,3.052,4.89l-4.543,0.85
		c-0.32-1.112-0.919-1.991-1.8-2.635c-0.882-0.643-1.981-0.966-3.3-0.966c-2,0-3.587,0.634-4.768,1.901
		c-1.179,1.268-1.77,3.148-1.77,5.64c0,2.689,0.597,4.705,1.793,6.05c1.195,1.345,2.76,2.016,4.696,2.016
		c0.958,0,1.92-0.189,2.882-0.565c0.963-0.375,1.79-0.832,2.479-1.367v-2.875h-5.236V64.921z"/>
	<path class="st1" d="M187.522,62.062c0-2.307,0.346-4.243,1.036-5.81c0.515-1.154,1.219-2.189,2.11-3.105
		c0.89-0.917,1.868-1.597,2.928-2.041c1.411-0.597,3.039-0.896,4.883-0.896c3.337,0,6.008,1.036,8.012,3.105
		c2.004,2.071,3.006,4.951,3.006,8.638c0,3.657-0.995,6.518-2.982,8.584c-1.989,2.065-4.647,3.098-7.974,3.098
		c-3.369,0-6.047-1.027-8.035-3.082C188.516,68.498,187.522,65.668,187.522,62.062z M192.235,61.908c0,2.566,0.592,4.51,1.778,5.833
		c1.185,1.323,2.689,1.986,4.512,1.986s3.319-0.657,4.489-1.97c1.169-1.315,1.753-3.284,1.753-5.911c0-2.596-0.57-4.532-1.708-5.809
		s-2.65-1.917-4.534-1.917c-1.885,0-3.405,0.647-4.559,1.94C192.813,57.352,192.235,59.302,192.235,61.908z"/>
</g>
<g>
	<path d="M98.057,19.534c-0.066,0.322-0.145,0.771-0.238,1.347c-0.093,0.576-0.157,1.021-0.189,1.338
		c-1.171,0.175-2.216,0.263-3.135,0.263c-0.887,0-1.712-0.111-2.475-0.333s-1.464-0.585-2.102-1.092
		c-0.637-0.506-1.093-1.101-1.366-1.786c-0.274-0.684-0.41-1.45-0.41-2.298c0-0.99,0.185-1.881,0.554-2.673
		c0.37-0.79,0.901-1.45,1.593-1.978c0.692-0.528,1.452-0.905,2.277-1.133c0.826-0.228,1.68-0.34,2.56-0.34
		c0.811,0,1.811,0.105,3.004,0.312l0.017,0.689c0.01,0.301,0.027,0.632,0.05,0.993l0.057,0.935c-0.64-0.153-1.158-0.257-1.556-0.312
		c-0.396-0.055-0.765-0.082-1.104-0.082c-0.739,0-1.403,0.148-1.995,0.444c-0.591,0.296-1.057,0.725-1.396,1.288
		c-0.34,0.563-0.509,1.188-0.509,1.871c0,0.624,0.141,1.16,0.427,1.605c0.284,0.446,0.669,0.791,1.153,1.035
		s1.082,0.366,1.793,0.366c0.389,0,0.812-0.031,1.268-0.094C96.794,19.836,97.368,19.715,98.057,19.534z"/>
	<path d="M99.897,22.267c0.088-0.816,0.15-1.486,0.189-2.011c0.078-1.1,0.157-2.378,0.24-3.834c0.05-0.962,0.087-1.887,0.111-2.774
		c0.024-0.887,0.037-1.749,0.037-2.586c0.695,0.01,1.26,0.017,1.699,0.017c0.59,0,1.148-0.005,1.673-0.017l-0.171,1.987
		c-0.027,0.328-0.07,0.993-0.13,1.995c0.181-0.229,0.328-0.4,0.444-0.512c0.115-0.112,0.242-0.217,0.381-0.312
		s0.282-0.176,0.426-0.242c0.145-0.065,0.312-0.124,0.501-0.172c0.189-0.05,0.398-0.087,0.623-0.115
		c0.227-0.027,0.461-0.041,0.702-0.041c0.465,0,0.915,0.052,1.35,0.155c0.435,0.105,0.805,0.287,1.113,0.547
		c0.306,0.26,0.514,0.549,0.623,0.87c0.108,0.32,0.163,0.672,0.163,1.055c0,0.148-0.004,0.344-0.011,0.586
		c-0.009,0.243-0.027,0.552-0.054,0.924l-0.18,2.766c-0.022,0.345-0.034,0.631-0.037,0.858c-0.003,0.227-0.004,0.512-0.004,0.858
		c-0.57-0.011-1.114-0.017-1.634-0.017c-0.585,0-1.18,0.005-1.782,0.017c0.093-0.728,0.175-1.566,0.245-2.516
		c0.07-0.949,0.106-1.657,0.106-2.122c0-0.514-0.108-0.876-0.324-1.083c-0.217-0.208-0.503-0.312-0.859-0.312
		c-0.319,0-0.6,0.065-0.846,0.196c-0.219,0.115-0.41,0.293-0.575,0.534c-0.143,0.203-0.26,0.496-0.353,0.878
		c-0.11,0.465-0.194,1.152-0.255,2.061c-0.032,0.503-0.065,1.292-0.097,2.364c-0.553-0.011-1.069-0.017-1.55-0.017
		C101.174,22.251,100.586,22.256,99.897,22.267z"/>
	<path d="M119.937,19.787c-0.071,0.329-0.209,1.122-0.41,2.381c-0.635,0.126-1.169,0.209-1.601,0.25
		c-0.432,0.041-0.87,0.061-1.314,0.061c-0.651,0-1.25-0.046-1.797-0.135c-0.548-0.09-1.02-0.25-1.416-0.479
		c-0.396-0.229-0.729-0.515-0.997-0.858c-0.268-0.342-0.473-0.747-0.612-1.217c-0.139-0.47-0.21-0.955-0.21-1.452
		c0-0.7,0.14-1.384,0.419-2.054c0.279-0.67,0.639-1.194,1.079-1.57c0.441-0.376,0.948-0.645,1.523-0.803
		c0.575-0.159,1.162-0.238,1.765-0.238c0.623,0,1.218,0.073,1.785,0.218c0.566,0.145,1.046,0.398,1.44,0.76
		c0.394,0.361,0.674,0.77,0.841,1.222c0.167,0.454,0.25,0.944,0.25,1.469c0,0.312-0.036,0.659-0.106,1.042l-5.754,0.008
		c-0.005,0.087-0.008,0.166-0.008,0.237c0,0.589,0.21,1.022,0.632,1.3s0.935,0.417,1.543,0.417c0.362,0,0.772-0.042,1.235-0.127
		S119.258,19.991,119.937,19.787z M114.888,17.137h2.708c0.005-0.093,0.008-0.172,0.008-0.238c0-0.284-0.051-0.528-0.152-0.73
		c-0.101-0.203-0.246-0.349-0.435-0.444c-0.189-0.093-0.4-0.139-0.636-0.139c-0.164,0-0.322,0.027-0.477,0.078
		c-0.153,0.052-0.292,0.129-0.414,0.229c-0.124,0.102-0.226,0.218-0.308,0.349s-0.143,0.259-0.181,0.381
		C114.964,16.747,114.927,16.917,114.888,17.137z"/>
	<path d="M122.097,22.267c0.158-1.243,0.278-2.614,0.362-4.116s0.134-2.924,0.15-4.264c0.658,0.011,1.225,0.017,1.701,0.017
		c0.553,0,1.085-0.005,1.594-0.017l-0.082,1.116c0.181-0.203,0.336-0.362,0.468-0.479s0.293-0.233,0.488-0.345
		c0.194-0.112,0.4-0.204,0.619-0.275c0.219-0.071,0.459-0.127,0.719-0.168s0.531-0.061,0.817-0.061c0.394,0,0.779,0.042,1.153,0.127
		c0.375,0.084,0.688,0.205,0.939,0.361c0.252,0.157,0.463,0.35,0.632,0.584s0.282,0.483,0.336,0.751
		c0.055,0.268,0.082,0.544,0.082,0.828c0,0.208-0.023,0.656-0.066,1.346l-0.141,2.972c-0.028,0.585-0.042,1.128-0.042,1.625
		c-0.552-0.011-1.069-0.017-1.55-0.017c-0.65,0-1.244,0.005-1.779,0.017c0.05-0.498,0.102-1.239,0.157-2.22
		c0.055-0.983,0.083-1.673,0.083-2.072c0-0.618-0.119-1.049-0.357-1.292c-0.238-0.243-0.538-0.366-0.9-0.366
		c-0.319,0-0.618,0.105-0.9,0.312s-0.5,0.51-0.653,0.907c-0.154,0.396-0.263,1.049-0.325,1.958
		c-0.064,0.907-0.106,1.833-0.127,2.774c-0.547-0.011-1.081-0.017-1.599-0.017C123.329,22.251,122.736,22.256,122.097,22.267z"/>
	<path d="M134.444,14.338c0.032-0.635,0.052-1.253,0.057-1.856l0.017-1.42c0.454,0.01,0.811,0.017,1.067,0.017
		c0.191,0,0.529-0.005,1.009-0.017c-0.115,1.017-0.215,2.109-0.303,3.275c-0.367-0.017-0.64-0.025-0.821-0.025
		C135.196,14.314,134.854,14.321,134.444,14.338z"/>
	<path d="M138.213,22.111c-0.022-0.24-0.043-0.493-0.065-0.76c-0.023-0.265-0.057-0.631-0.107-1.096l-0.065-0.59
		c0.53,0.208,0.985,0.362,1.367,0.464c0.382,0.102,0.734,0.152,1.057,0.152c0.268,0,0.484-0.025,0.651-0.074
		c0.167-0.05,0.288-0.12,0.364-0.213c0.076-0.093,0.115-0.189,0.115-0.288c0-0.087-0.028-0.173-0.085-0.259
		c-0.057-0.085-0.186-0.201-0.389-0.349c-0.447-0.328-0.841-0.626-1.183-0.895c-0.342-0.268-0.598-0.506-0.77-0.715
		c-0.172-0.209-0.303-0.432-0.393-0.673c-0.09-0.241-0.135-0.489-0.135-0.747c0-0.454,0.13-0.878,0.39-1.273
		c0.26-0.394,0.642-0.679,1.15-0.858c0.506-0.178,1.123-0.266,1.85-0.266c0.761,0,1.732,0.099,2.915,0.296l0.131,2.299
		c-0.663-0.264-1.3-0.395-1.912-0.395c-0.432,0-0.746,0.045-0.941,0.134c-0.195,0.089-0.292,0.224-0.292,0.408
		c0,0.06,0.011,0.117,0.033,0.172c0.022,0.055,0.061,0.112,0.119,0.172c0.057,0.06,0.129,0.122,0.213,0.185
		c0.084,0.062,0.292,0.209,0.619,0.438c0.329,0.231,0.585,0.419,0.771,0.567c0.306,0.241,0.54,0.464,0.702,0.669
		c0.161,0.205,0.284,0.424,0.37,0.656c0.085,0.233,0.127,0.478,0.127,0.735c0,0.389-0.094,0.746-0.283,1.071
		c-0.189,0.325-0.474,0.598-0.854,0.817c-0.38,0.219-0.793,0.371-1.235,0.456c-0.444,0.084-0.901,0.127-1.371,0.127
		c-0.317,0-0.716-0.027-1.194-0.082C139.404,22.344,138.847,22.248,138.213,22.111z"/>
	<path d="M151.407,22.267c0.153-1.724,0.287-3.732,0.401-6.026s0.172-4.02,0.172-5.179c0.636,0.01,1.229,0.017,1.782,0.017
		c0.542,0,1.073-0.005,1.593-0.017c-0.12,0.853-0.206,1.792-0.261,2.815c0.497-0.082,0.881-0.136,1.148-0.164
		c0.268-0.027,0.533-0.041,0.797-0.041c0.842,0,1.564,0.133,2.163,0.398c0.599,0.265,1.086,0.714,1.461,1.342
		c0.375,0.628,0.562,1.398,0.562,2.307s-0.178,1.745-0.533,2.508c-0.356,0.763-0.832,1.329-1.429,1.699
		c-0.596,0.37-1.291,0.554-2.085,0.554c-0.296,0-0.577-0.029-0.846-0.09c-0.268-0.06-0.511-0.149-0.73-0.266
		s-0.403-0.242-0.551-0.373s-0.317-0.31-0.509-0.533l-0.029,1.05c-0.586-0.011-1.077-0.017-1.472-0.017
		C152.72,22.251,152.174,22.256,151.407,22.267z M154.863,16.184c-0.04,0.907-0.059,1.463-0.059,1.666
		c0,0.515,0.045,0.923,0.135,1.223c0.09,0.301,0.264,0.542,0.517,0.723c0.255,0.181,0.54,0.27,0.858,0.27
		c0.329,0,0.616-0.09,0.863-0.27c0.246-0.181,0.433-0.445,0.562-0.793c0.129-0.348,0.194-0.714,0.194-1.096
		c0-0.575-0.155-1.035-0.465-1.383c-0.311-0.347-0.756-0.521-1.337-0.521C155.768,16.004,155.346,16.065,154.863,16.184z"/>
	<path d="M172.045,22.267c-0.622-0.011-1.142-0.017-1.561-0.017c-0.512,0-1.031,0.005-1.551,0.017l-0.01-1.124
		c-0.196,0.246-0.363,0.431-0.501,0.554c-0.138,0.124-0.287,0.232-0.449,0.324c-0.162,0.093-0.342,0.175-0.54,0.242
		c-0.201,0.069-0.431,0.122-0.689,0.161c-0.261,0.038-0.525,0.057-0.794,0.057c-0.431,0-0.839-0.051-1.225-0.152
		c-0.387-0.102-0.726-0.271-1.018-0.512c-0.293-0.241-0.493-0.515-0.6-0.822c-0.106-0.306-0.159-0.661-0.159-1.067
		c0-0.099,0.008-0.252,0.024-0.46l0.131-1.863c0.038-0.684,0.074-1.441,0.107-2.274c0.022-0.509,0.032-0.99,0.032-1.445
		c0.679,0.011,1.257,0.017,1.732,0.017c0.483,0,1.013-0.005,1.593-0.017l-0.254,3.127c-0.04,0.477-0.06,0.8-0.062,0.972
		s-0.005,0.289-0.005,0.349c0,0.575,0.117,0.962,0.35,1.166c0.232,0.203,0.51,0.303,0.833,0.303c0.133,0,0.264-0.019,0.396-0.057
		s0.259-0.093,0.379-0.163c0.105-0.066,0.201-0.148,0.289-0.246c0.092-0.105,0.175-0.229,0.246-0.377
		c0.087-0.181,0.154-0.375,0.196-0.582c0.062-0.291,0.107-0.658,0.141-1.1c0.02-0.322,0.05-0.881,0.087-1.675l0.065-1.715
		c0.705,0.011,1.285,0.017,1.737,0.017c0.507,0,1.021-0.005,1.533-0.017c-0.125,1.39-0.224,2.712-0.293,3.965
		C172.141,19.104,172.086,20.576,172.045,22.267z"/>
	<path d="M174.255,22.111c-0.023-0.24-0.045-0.493-0.066-0.76c-0.023-0.265-0.057-0.631-0.107-1.096l-0.066-0.59
		c0.53,0.208,0.985,0.362,1.367,0.464c0.382,0.102,0.734,0.152,1.057,0.152c0.268,0,0.484-0.025,0.651-0.074
		c0.167-0.048,0.289-0.12,0.364-0.213c0.076-0.093,0.115-0.189,0.115-0.288c0-0.087-0.028-0.173-0.085-0.259
		c-0.057-0.085-0.186-0.201-0.389-0.349c-0.449-0.328-0.842-0.626-1.184-0.895c-0.342-0.269-0.598-0.506-0.77-0.715
		c-0.172-0.209-0.302-0.432-0.394-0.673c-0.089-0.241-0.134-0.489-0.134-0.747c0-0.454,0.13-0.878,0.39-1.273
		c0.26-0.394,0.644-0.679,1.148-0.858c0.506-0.178,1.124-0.266,1.852-0.266c0.761,0,1.731,0.099,2.913,0.296l0.133,2.299
		c-0.663-0.264-1.301-0.395-1.913-0.395c-0.433,0-0.746,0.045-0.939,0.134c-0.194,0.089-0.292,0.224-0.292,0.408
		c0,0.06,0.01,0.117,0.032,0.172c0.022,0.055,0.061,0.112,0.12,0.172c0.057,0.06,0.129,0.122,0.213,0.185
		c0.084,0.062,0.292,0.209,0.619,0.438c0.329,0.231,0.585,0.419,0.771,0.567c0.306,0.241,0.54,0.464,0.702,0.669
		s0.284,0.424,0.37,0.656c0.084,0.233,0.127,0.478,0.127,0.735c0,0.389-0.094,0.746-0.284,1.071
		c-0.187,0.325-0.473,0.598-0.854,0.817c-0.38,0.219-0.791,0.371-1.235,0.456c-0.444,0.084-0.9,0.127-1.371,0.127
		c-0.317,0-0.716-0.027-1.194-0.082C175.446,22.344,174.89,22.248,174.255,22.111z"/>
	<path d="M182.811,22.267c0.076-0.668,0.133-1.218,0.171-1.649c0.038-0.432,0.076-0.985,0.111-1.658
		c0.036-0.673,0.068-1.417,0.094-2.233c0.027-0.816,0.048-1.761,0.065-2.841c0.712,0.011,1.282,0.017,1.709,0.017
		c0.389,0,0.947-0.005,1.675-0.017c-0.093,1.035-0.162,1.942-0.203,2.726c-0.041,0.783-0.068,1.611-0.079,2.486
		c-0.023,1.555-0.033,2.61-0.033,3.168c-0.651-0.011-1.211-0.017-1.681-0.017C184.174,22.251,183.564,22.256,182.811,22.267z
		 M183.327,12.835c0.033-0.651,0.05-1.166,0.05-1.543c0-0.11-0.003-0.257-0.009-0.444c0.663,0.01,1.218,0.017,1.667,0.017
		c0.618,0,1.16-0.005,1.625-0.017c-0.017,0.17-0.027,0.312-0.032,0.427l-0.05,1.017c-0.011,0.154-0.017,0.334-0.017,0.542
		c-0.542-0.011-1.062-0.017-1.56-0.017C184.487,12.819,183.93,12.825,183.327,12.835z"/>
	<path d="M188.442,22.267c0.158-1.243,0.279-2.614,0.363-4.116c0.083-1.503,0.133-2.924,0.15-4.264
		c0.658,0.011,1.223,0.017,1.701,0.017c0.553,0,1.085-0.005,1.594-0.017l-0.082,1.116c0.181-0.203,0.336-0.362,0.468-0.479
		c0.131-0.117,0.293-0.233,0.488-0.345c0.194-0.112,0.4-0.204,0.619-0.275c0.219-0.071,0.458-0.127,0.718-0.168
		c0.26-0.041,0.533-0.061,0.817-0.061c0.395,0,0.779,0.042,1.153,0.127c0.375,0.084,0.688,0.205,0.939,0.361
		c0.251,0.155,0.463,0.35,0.632,0.584s0.282,0.483,0.336,0.751c0.055,0.268,0.082,0.544,0.082,0.828
		c0,0.208-0.022,0.656-0.066,1.346l-0.141,2.972c-0.027,0.585-0.041,1.128-0.041,1.625c-0.553-0.011-1.069-0.017-1.55-0.017
		c-0.651,0-1.245,0.005-1.779,0.017c0.05-0.498,0.102-1.239,0.157-2.22c0.055-0.981,0.083-1.673,0.083-2.072
		c0-0.618-0.12-1.049-0.358-1.292c-0.238-0.243-0.538-0.366-0.898-0.366c-0.319,0-0.618,0.105-0.9,0.312
		c-0.283,0.208-0.501,0.51-0.654,0.907c-0.153,0.396-0.261,1.049-0.325,1.958c-0.064,0.907-0.106,1.833-0.129,2.774
		c-0.547-0.011-1.081-0.017-1.599-0.017C189.675,22.251,189.083,22.256,188.442,22.267z"/>
	<path d="M208.497,19.787c-0.071,0.329-0.208,1.122-0.41,2.381c-0.635,0.126-1.169,0.209-1.601,0.25
		c-0.432,0.041-0.87,0.061-1.313,0.061c-0.653,0-1.25-0.046-1.798-0.135c-0.547-0.09-1.02-0.25-1.415-0.479
		c-0.398-0.229-0.729-0.515-0.998-0.858c-0.268-0.342-0.472-0.747-0.61-1.217c-0.139-0.47-0.209-0.955-0.209-1.452
		c0-0.7,0.139-1.384,0.418-2.054c0.279-0.67,0.639-1.194,1.079-1.57c0.441-0.376,0.948-0.645,1.523-0.803
		c0.574-0.159,1.162-0.238,1.765-0.238c0.623,0,1.218,0.073,1.784,0.218s1.046,0.398,1.441,0.76c0.394,0.361,0.674,0.77,0.841,1.222
		c0.167,0.454,0.25,0.944,0.25,1.469c0,0.312-0.036,0.659-0.107,1.042l-5.754,0.008c-0.006,0.087-0.009,0.166-0.009,0.237
		c0,0.589,0.212,1.022,0.632,1.3c0.422,0.278,0.935,0.417,1.543,0.417c0.361,0,0.772-0.042,1.236-0.127
		C207.248,20.134,207.819,19.991,208.497,19.787z M203.449,17.137h2.708c0.005-0.093,0.009-0.172,0.009-0.238
		c0-0.284-0.051-0.528-0.152-0.73c-0.102-0.203-0.246-0.349-0.436-0.444c-0.189-0.093-0.4-0.139-0.636-0.139
		c-0.164,0-0.322,0.027-0.477,0.078c-0.153,0.052-0.292,0.129-0.414,0.229c-0.124,0.102-0.226,0.218-0.307,0.349
		s-0.141,0.259-0.181,0.381C203.524,16.745,203.486,16.917,203.449,17.137z"/>
	<path d="M210.675,22.111c-0.023-0.24-0.045-0.493-0.066-0.76c-0.023-0.265-0.057-0.631-0.107-1.096l-0.066-0.59
		c0.53,0.208,0.985,0.362,1.367,0.464c0.382,0.102,0.734,0.152,1.057,0.152c0.268,0,0.484-0.025,0.651-0.074
		c0.167-0.048,0.289-0.12,0.364-0.213c0.076-0.093,0.115-0.189,0.115-0.288c0-0.087-0.028-0.173-0.085-0.259
		c-0.057-0.085-0.186-0.201-0.389-0.349c-0.449-0.328-0.842-0.626-1.184-0.895c-0.342-0.269-0.598-0.506-0.77-0.715
		c-0.172-0.209-0.302-0.432-0.394-0.673c-0.089-0.241-0.134-0.489-0.134-0.747c0-0.454,0.13-0.878,0.39-1.273
		c0.26-0.394,0.644-0.679,1.148-0.858c0.506-0.178,1.124-0.266,1.852-0.266c0.761,0,1.731,0.099,2.913,0.296l0.133,2.299
		c-0.663-0.264-1.301-0.395-1.913-0.395c-0.433,0-0.746,0.045-0.939,0.134c-0.194,0.089-0.292,0.224-0.292,0.408
		c0,0.06,0.01,0.117,0.032,0.172c0.022,0.055,0.061,0.112,0.12,0.172c0.057,0.06,0.129,0.122,0.213,0.185s0.292,0.209,0.619,0.438
		c0.329,0.231,0.585,0.419,0.771,0.567c0.306,0.241,0.54,0.464,0.702,0.669s0.284,0.424,0.37,0.656
		c0.084,0.233,0.127,0.478,0.127,0.735c0,0.389-0.094,0.746-0.284,1.071c-0.187,0.325-0.473,0.598-0.854,0.817
		c-0.38,0.219-0.791,0.371-1.235,0.456c-0.444,0.084-0.9,0.127-1.371,0.127c-0.317,0-0.716-0.027-1.194-0.082
		C211.867,22.344,211.31,22.248,210.675,22.111z"/>
	<path d="M219.213,22.111c-0.023-0.24-0.045-0.493-0.066-0.76c-0.023-0.265-0.057-0.631-0.107-1.096l-0.066-0.59
		c0.53,0.208,0.985,0.362,1.367,0.464c0.382,0.102,0.734,0.152,1.057,0.152c0.268,0,0.484-0.025,0.651-0.074
		c0.167-0.048,0.289-0.12,0.364-0.213c0.076-0.093,0.115-0.189,0.115-0.288c0-0.087-0.028-0.173-0.085-0.259
		c-0.057-0.085-0.186-0.201-0.389-0.349c-0.449-0.328-0.842-0.626-1.184-0.895c-0.342-0.269-0.598-0.506-0.77-0.715
		c-0.172-0.209-0.302-0.432-0.394-0.673c-0.089-0.241-0.134-0.489-0.134-0.747c0-0.454,0.13-0.878,0.39-1.273
		c0.26-0.394,0.644-0.679,1.148-0.858c0.506-0.178,1.124-0.266,1.852-0.266c0.761,0,1.731,0.099,2.913,0.296l0.133,2.299
		c-0.663-0.264-1.301-0.395-1.913-0.395c-0.433,0-0.746,0.045-0.939,0.134c-0.194,0.089-0.292,0.224-0.292,0.408
		c0,0.06,0.01,0.117,0.032,0.172s0.061,0.112,0.12,0.172c0.057,0.06,0.129,0.122,0.213,0.185c0.084,0.062,0.292,0.209,0.619,0.438
		c0.329,0.231,0.585,0.419,0.771,0.567c0.306,0.241,0.54,0.464,0.702,0.669c0.162,0.205,0.284,0.424,0.37,0.656
		c0.084,0.233,0.127,0.478,0.127,0.735c0,0.389-0.094,0.746-0.284,1.071c-0.187,0.325-0.473,0.598-0.854,0.817
		c-0.38,0.219-0.791,0.371-1.235,0.456c-0.444,0.084-0.9,0.127-1.371,0.127c-0.317,0-0.716-0.027-1.194-0.082
		C220.404,22.344,219.847,22.248,219.213,22.111z"/>
</g>
</svg>
